<svg xmlns="http://www.w3.org/2000/svg" xmlns:xlink="http://www.w3.org/1999/xlink" width="119" height="1615" viewBox="0 0 119 1615"><svg width="108" height="108" viewBox="-10 -10 108 108"><circle fill="none" stroke="#FF0018" stroke-width="3" stroke-miterlimit="10" cx="-206" cy="44" r="43"/><path clip-rule="evenodd" fill="none" stroke="#FF0018" stroke-width="3" stroke-miterlimit="10" d="M-211.9 38.7l-2.6-.6-7.7-13.7-5.2-1.2m19.5 11.5l3-.4 9.9-15.5 5.9-.8m-3.7 9.8l-5.9 9.5 7-1.5m-38.1 1.5l10.4 4-6.5 3m1.4 15.5l40.3-8.1c-1.8 4.7-10.3 17.1-25.2 17.1-11.6 0-15.1-7.9-15.1-9z"/><circle fill="none" stroke="#FF0018" stroke-width="3" stroke-miterlimit="10" cx="-74.8" cy="46" r="42.5"/><path clip-rule="evenodd" fill="none" stroke="#FF0018" stroke-width="3" stroke-miterlimit="10" d="M-84.3 64l-4.8 14.5m29.5-59.7l-7.5 10.8M-93 41.1l-10.6-7.8m64.3 18.2l-23 2m-42-4l-3 4 2 4 2-4 4-1-5-3zm45 17l1 5 5-4-6-1zm-12-51l1 4 5-2-2-2v-3l-4 3z"/><path fill="none" stroke="#FF0018" stroke-width="3" stroke-miterlimit="10" d="M-75.7 29.5l3.1 7.4 17.2-9.4-8.3 15.2 12.3 4.4-15 4.7.8 8-7-1.8-6.4 6.6-2.4-6.6-16.1 7.6 9.9-13.7-7.2-4.4 7.2-4.4-6.4-9.4 12.6 3.3 5.7-7.5z"/><circle fill="none" stroke="#FF0018" stroke-width="3" stroke-miterlimit="10" cx="44" cy="44" r="42.5"/><path clip-rule="evenodd" fill="none" stroke="#FF0018" stroke-width="3" stroke-miterlimit="10" d="M31.5 19.5l4 2m-1-9l3 5m6-6v5m7 5c0-4.4 3.3-7.9 7-6 3 1.4 3.4.4 5 0-1.3 2.6-.7 3.2-2 4-3 1.9-5.6-2.4-10 2zm-14 44c5.4 1.4 7 1 7 1v11m-25-20s32.2-11.3 50-.8M52.4 30.9c4.1 3.2 11.6 17.4-3 15.9-4.3-.5-5.9-3.4-5.9-5.7m-8.9-10.2c-4.1 3.2-11.6 17.4 3 15.9 4.3-.5 5.9-3.4 5.9-5.7"/><path clip-rule="evenodd" fill="none" stroke="#FF0018" stroke-width="3" stroke-miterlimit="10" d="M56.6 45.1s11.9 2.6 11.9 11.4-18.8 19.6-25 21m6.8-47S67 32.2 65.6 49.9m-35.3-4.6s-11.8 2.5-11.8 11.3 18.8 19.6 25 21m-5.9-47.5s-17.5 2-16.1 19.8m23-29.3c3.8 0 6.9 3.1 6.9 6.9s-3.1 6.9-6.9 6.9-6.9-3.1-6.9-6.9 3.1-6.9 6.9-6.9z"/><circle fill="none" stroke="#FF0018" stroke-width="3" stroke-miterlimit="10" cx="-136" cy="152.7" r="43"/><path clip-rule="evenodd" fill="none" stroke="#FF0018" stroke-width="3" stroke-miterlimit="10" d="M-139.5 165.8s-7.6 12.4-9.3 15.5c2.1 2.9 1.3 5.6-1.6 4.6-1.9-.6-2-2.4-2.8-2.8-.8-.4-2 1.2-3.2-.8-.6-1.1-.6-3.1 3.7-2.5 1.6-3.1 9.5-16 9.5-16"/><path clip-rule="evenodd" fill="none" stroke="#FF0018" stroke-width="3" stroke-miterlimit="10" d="M-120 123.3c-1.3-.6-2.8-1-4.5-1.1-.6.8-1.6 1.3-2.6 1.4.2.8.2 1.6-.1 2.4-.6 1.4-2.1 2.1-3.5 1.9 0 .4-.1.8-.3 1.2-.8 1.7-2.8 2.5-4.5 1.7-.5-.2-1-.6-1.3-1.1-.5.6-1.3 1-2.1 1.2-.1.2-.2.3-.2.5-3.4 8.9-4.4 19.7-4.4 29.6-.5 2.1 1.2 5.6 5.9 4 2.8-1 7.9-3.9 12.3-6.8-.5-.7-.7-1.5-.6-2.4.1-1.4 1.1-2.6 2.4-3.1-.5-.7-.8-1.6-.7-2.5.2-1.7 1.4-2.9 3-3.3-.1-.4-.2-.9-.1-1.4.2-2 2-3.5 4-3.3.6.1 1.2.3 1.7.6.6-1.5 2.1-2.5 3.8-2.3.5.1 1 .2 1.5.5 1.7-5.9.6-12.7-9.7-17.7zm-4.5 50c-.8 0 .8-5.8 1.8-5s2.8 3.5 1.8 4-3.6 1-3.6 1zm-29.3-26.7c-.8 0-.4-3.6.6-2.9s2.8 3.5 1.8 4-2.4-1.1-2.4-1.1zm12.5-23.2c-2.5.7-1.7-3.8 1.4-4.1 1-.1 3.4 2.8 1.4 3.3-.8.2-2.8.8-2.8.8zm23.6 36.6l1.8-.7c1.8.3.3 1.8-.4 2.8s-3.7-.6-1.4-2.1zm-37.7-33.7l.2 1.4c-.5 1.3-1.3-.1-1.9-.7s1-2.6 1.7-.7z"/><g fill="none" stroke="#FF0018" stroke-width="3" stroke-miterlimit="10"><circle cx="-5" cy="156.2" r="43"/><g clip-rule="evenodd"><path d="M-17.9 135.7s2.7.9 4.7.5 9.6-3.2 13.7-2.9c4.1.4 14.2 1.4 14.2 4.5s-.4 2.9.4 3.7 2.4 2 2.1 3.4-1 2.4-.7 3.4c.2 1 2.2 2.5 1.9 4-.4 1.5-2 2.5-1.2 3.6.7 1.1 2.1 3 1.4 4.9-.7 1.9-1.5 2.6-2.9 3.4s-5.6.6-12 .7c-1.6-.1-3.2.5-3.2 1.5s1.1 3.4 2 4.7 2.6 3.5 1.9 7.9c-.4 3-2.9 7.1-4.9 6s-1.5-4-2.4-6.7-2.7-5.1-3.9-6.1c-1.1-1-3.2-2.6-4-4.6-.7-2-3-10.1-6.5-10.2"/><path d="M-20.3 159.4h-6.6c-1.6 0-2.9-1.3-2.9-2.9l1-19.6c0-1.6 1.3-2.9 2.9-2.9h5.6c1.6 0 2.9 1.3 2.9 2.9v19.6c0 1.6-1.3 2.9-2.9 2.9z"/></g><circle clip-rule="evenodd" cx="-23.1" cy="139.4" r="2.4"/></g></svg><svg width="109" height="109" viewBox="-10 -10 109 109" y="108"><circle fill="none" stroke="#FF0018" stroke-width="3" stroke-miterlimit="10" cx="-25.5" cy="-64.2" r="43"/><path clip-rule="evenodd" fill="none" stroke="#FF0018" stroke-width="3" stroke-miterlimit="10" d="M-31.4-69.5L-34-70l-7.7-13.7-5.2-1.2m19.5 11.4l3-.4 9.9-15.5 5.9-.8m-3.7 9.8l-5.9 9.5 7-1.5m-38.1 1.5l10.4 4-6.5 3m1.4 15.6l40.3-8.1c-1.8 4.6-10.3 17-25.2 17-11.6 0-15.1-7.9-15.1-8.9z"/><circle fill="none" stroke="#FF0018" stroke-width="3" stroke-miterlimit="10" cx="105.7" cy="-62.2" r="42.5"/><path clip-rule="evenodd" fill="none" stroke="#FF0018" stroke-width="3" stroke-miterlimit="10" d="M96.2-44.2l-4.8 14.5m29.5-59.7l-7.5 10.8M87.5-67l-10.6-7.8m64.3 18.1l-23 2m-42-4l-3 4 2 4 2-4 4-1-5-3zm45 17l1 5 5-4-6-1zm-12-51l1 4 5-2-2-2v-3l-4 3z"/><path fill="none" stroke="#FF0018" stroke-width="3" stroke-miterlimit="10" d="M104.8-78.7l3.1 7.4 17.2-9.4-8.3 15.2 12.3 4.4-15 4.7.8 8-7-1.8-6.4 6.6-2.4-6.6L83-42.6l10-13.8-7.2-4.4 7.2-4.4-6.4-9.4 12.6 3.3 5.6-7.4z"/><circle fill="none" stroke="#FF0018" stroke-width="3" stroke-miterlimit="10" cx="224.5" cy="-64.2" r="42.5"/><path clip-rule="evenodd" fill="none" stroke="#FF0018" stroke-width="3" stroke-miterlimit="10" d="M212-88.7l4 2m-1-9l3 5m6-6v5m7 5c0-4.4 3.3-7.9 7-6 3 1.4 3.4.4 5 0-1.3 2.6-.7 3.2-2 4-3 1.9-5.6-2.4-10 2zm-14 44c5.4 1.4 7 1 7 1v11m-25-20s32.2-11.3 50-.8m-16.1-25.8c4.1 3.2 11.6 17.4-3 15.9-4.3-.5-5.9-3.4-5.9-5.7m-8.9-10.2c-4.1 3.2-11.6 17.4 3 15.9 4.3-.5 5.9-3.4 5.9-5.7"/><path clip-rule="evenodd" fill="none" stroke="#FF0018" stroke-width="3" stroke-miterlimit="10" d="M237.1-63S249-60.4 249-51.6s-18.8 19.6-25 21m6.8-47.1s16.6 1.7 15.3 19.4m-35.3-4.6S199-60.4 199-51.6s18.8 19.6 25 21M218.1-78s-17.5 2-16.1 19.8m23-29.3c3.8 0 6.9 3.1 6.9 6.9s-3.1 6.9-6.9 6.9-6.9-3.1-6.9-6.9 3.1-6.9 6.9-6.9z"/><circle fill="none" stroke="#FF0018" stroke-width="3" stroke-miterlimit="10" cx="44.5" cy="44.5" r="43"/><path clip-rule="evenodd" fill="none" stroke="#FF0018" stroke-width="3" stroke-miterlimit="10" d="M41 57.7s-7.6 12.4-9.3 15.5c2.1 2.9 1.3 5.6-1.6 4.6-1.9-.6-2-2.4-2.8-2.8-.8-.4-2 1.2-3.2-.8-.6-1.1-.6-3.1 3.7-2.5 1.6-3.1 9.5-16 9.5-16"/><path clip-rule="evenodd" fill="none" stroke="#FF0018" stroke-width="3" stroke-miterlimit="10" d="M60.5 15.1c-1.3-.6-2.8-1-4.5-1.1-.6.8-1.6 1.3-2.6 1.4.2.8.2 1.6-.1 2.4-.6 1.4-2.1 2.1-3.5 1.9 0 .4-.1.8-.3 1.2-.8 1.7-2.8 2.5-4.5 1.7-.5-.2-1-.6-1.3-1.1-.5.6-1.3 1-2.1 1.2-.1.2-.2.3-.2.5C38 32.1 37 42.9 37 52.8c-.5 2.1 1.2 5.6 5.9 4 2.8-1 7.9-3.9 12.3-6.8-.5-.7-.7-1.5-.6-2.4.1-1.4 1.1-2.6 2.4-3.1-.5-.7-.8-1.6-.7-2.5.2-1.7 1.4-2.9 3-3.3-.1-.4-.2-.9-.1-1.4.2-2 2-3.5 4-3.3.6.1 1.2.3 1.7.6.6-1.5 2.1-2.5 3.8-2.3.5.1 1 .2 1.5.5 1.7-5.9.6-12.6-9.7-17.7zm-4.5 50c-.8 0 .8-5.8 1.8-5s2.8 3.5 1.8 4-3.6 1-3.6 1zM26.8 38.5c-.8 0-.4-3.6.6-2.9s2.8 3.5 1.8 4-2.4-1.1-2.4-1.1zm12.4-23.3c-2.5.7-1.7-3.8 1.4-4.1 1-.1 3.4 2.8 1.4 3.3-.8.2-2.8.8-2.8.8zm23.6 36.6l1.8-.7c1.8.3.3 1.8-.4 2.8-.6 1.1-3.7-.6-1.4-2.1zM25.1 18.1l.2 1.4c-.5 1.3-1.3-.1-1.9-.7s1-2.6 1.7-.7z"/><g fill="none" stroke="#FF0018" stroke-width="3" stroke-miterlimit="10"><circle cx="175.5" cy="48" r="43"/><g clip-rule="evenodd"><path d="M162.6 27.6s2.7.9 4.7.5 9.6-3.2 13.7-2.9c4.1.4 14.2 1.4 14.2 4.5s-.4 2.9.4 3.7c.7.9 2.4 2 2.1 3.4s-1 2.4-.7 3.4c.2 1 2.2 2.5 1.9 4-.4 1.5-2 2.5-1.2 3.6.7 1.1 2.1 3 1.4 4.9-.7 1.9-1.5 2.6-2.9 3.4-1.4.7-5.6.6-12 .7-1.6-.1-3.2.5-3.2 1.5s1.1 3.4 2 4.7c.9 1.4 2.6 3.5 1.9 7.9-.4 3-2.9 7.1-4.9 6s-1.5-4-2.4-6.7c-.9-2.7-2.7-5.1-3.9-6.1-1.1-1-3.2-2.6-4-4.6-.7-2-3-10.1-6.5-10.2"/><path d="M160.2 51.3h-6.6c-1.6 0-2.9-1.3-2.9-2.9l1-19.6c0-1.6 1.3-2.9 2.9-2.9h5.6c1.6 0 2.9 1.3 2.9 2.9v19.6c0 1.6-1.3 2.9-2.9 2.9z"/></g><circle clip-rule="evenodd" cx="157.4" cy="31.2" r="2.4"/></g></svg><svg width="109" height="109" viewBox="-10 -10 109 109" y="217"><circle fill="none" stroke="#FF0018" stroke-width="3" stroke-miterlimit="10" cx="-156.5" cy="-67.7" r="43"/><path clip-rule="evenodd" fill="none" stroke="#FF0018" stroke-width="3" stroke-miterlimit="10" d="M-162.4-73l-2.6-.6-7.7-13.7-5.2-1.2m19.5 11.5l3-.4 9.9-15.5 5.9-.8m-3.7 9.8l-5.9 9.5 7-1.5m-38.1 1.5l10.4 4-6.5 3m1.4 15.6l40.3-8.1c-1.8 4.7-10.3 17.1-25.2 17.1-11.6-.1-15.1-8-15.1-9z"/><circle fill="none" stroke="#FF0018" stroke-width="3" stroke-miterlimit="10" cx="-25.3" cy="-65.7" r="42.5"/><path clip-rule="evenodd" fill="none" stroke="#FF0018" stroke-width="3" stroke-miterlimit="10" d="M-34.8-47.7l-4.8 14.5m29.5-59.7L-17.6-82m-25.9 11.5l-10.6-7.8m64.3 18.1l-23 2m-42-4l-3 4 2 4 2-4 4-1-5-3zm45 17l1 5 5-4-6-1zm-12-51l1 4 5-2-2-2v-3l-4 3z"/><path fill="none" stroke="#FF0018" stroke-width="3" stroke-miterlimit="10" d="M-26.2-82.2l3.1 7.4 17.2-9.4-8.3 15.2 12.3 4.4-15 4.7.8 8-7-1.8-6.4 6.6-2.4-6.6-16.1 7.6 9.9-13.7-7.2-4.4 7.2-4.4-6.4-9.4 12.6 3.3 5.7-7.5z"/><circle fill="none" stroke="#FF0018" stroke-width="3" stroke-miterlimit="10" cx="93.5" cy="-67.7" r="42.5"/><path clip-rule="evenodd" fill="none" stroke="#FF0018" stroke-width="3" stroke-miterlimit="10" d="M81-92.2l4 2m-1-9l3 5m6-6v5m7 5c0-4.4 3.3-7.9 7-6 3 1.4 3.4.4 5 0-1.3 2.6-.7 3.2-2 4-3 1.9-5.6-2.4-10 2zm-14 44c5.4 1.4 7 1 7 1v11m-25-20s32.2-11.3 50-.8m-16.1-25.8c4.1 3.2 11.6 17.4-3 15.9-4.3-.5-5.9-3.4-5.9-5.7m-8.9-10.2c-4.1 3.2-11.6 17.4 3 15.9 4.3-.5 5.9-3.4 5.9-5.7"/><path clip-rule="evenodd" fill="none" stroke="#FF0018" stroke-width="3" stroke-miterlimit="10" d="M106.1-66.5S118-63.9 118-55.1s-18.8 19.6-25 21m6.8-47.1s16.7 1.7 15.3 19.4m-35.3-4.6S68-63.9 68-55.1s18.8 19.6 25 21m-5.9-47.4s-17.5 2-16.1 19.8M94-91c3.8 0 6.9 3.1 6.9 6.9s-3.1 6.9-6.9 6.9-6.9-3.1-6.9-6.9S90.2-91 94-91z"/><circle fill="none" stroke="#FF0018" stroke-width="3" stroke-miterlimit="10" cx="-86.5" cy="41" r="43"/><path clip-rule="evenodd" fill="none" stroke="#FF0018" stroke-width="3" stroke-miterlimit="10" d="M-90 54.2s-7.6 12.4-9.3 15.5c2.1 2.9 1.3 5.6-1.6 4.6-1.9-.6-2-2.4-2.8-2.8-.8-.4-2 1.2-3.2-.8-.6-1.1-.6-3.1 3.7-2.5 1.6-3.1 9.5-16 9.5-16"/><path clip-rule="evenodd" fill="none" stroke="#FF0018" stroke-width="3" stroke-miterlimit="10" d="M-70.5 11.6c-1.3-.6-2.8-1-4.5-1.1-.6.8-1.6 1.3-2.6 1.4.2.8.2 1.6-.1 2.4-.6 1.4-2.1 2.1-3.5 1.9 0 .4-.1.8-.3 1.2-.8 1.7-2.8 2.5-4.5 1.7-.5-.2-1-.6-1.3-1.1-.5.6-1.3 1-2.1 1.2-.1.2-.2.3-.2.5C-93 28.6-94 39.4-94 49.3c-.5 2.1 1.2 5.6 5.9 4 2.8-1 7.9-3.9 12.3-6.8-.5-.7-.7-1.5-.6-2.4.1-1.4 1.1-2.6 2.4-3.1-.5-.7-.8-1.6-.7-2.5.2-1.7 1.4-2.9 3-3.3-.1-.4-.2-.9-.1-1.4.2-2 2-3.5 4-3.3.6.1 1.2.3 1.7.6.6-1.5 2.1-2.5 3.8-2.3.5.1 1 .2 1.5.5 1.7-5.9.6-12.6-9.7-17.7zm-4.5 50c-.8 0 .8-5.8 1.8-5s2.8 3.5 1.8 4-3.6 1-3.6 1zM-104.3 35c-.8 0-.4-3.6.6-2.9s2.8 3.5 1.8 4-2.4-1.1-2.4-1.1zm12.5-23.3c-2.5.7-1.7-3.8 1.4-4.1 1-.1 3.4 2.8 1.4 3.3-.8.2-2.8.8-2.8.8zm23.6 36.6l1.8-.7c1.8.3.3 1.8-.4 2.8s-3.7-.6-1.4-2.1zm-37.7-33.7l.2 1.4c-.5 1.3-1.3-.1-1.9-.7-.6-.6 1-2.6 1.7-.7z"/><g fill="none" stroke="#FF0018" stroke-width="3" stroke-miterlimit="10"><circle cx="44.5" cy="44.5" r="43"/><g clip-rule="evenodd"><path d="M31.6 24.1s2.7.9 4.7.5 9.6-3.2 13.7-2.9c4.1.4 14.2 1.4 14.2 4.5s-.4 2.9.4 3.7c.7.9 2.4 2 2.1 3.4-.2 1.4-1 2.4-.7 3.4.2 1 2.2 2.5 1.9 4-.4 1.5-2 2.5-1.2 3.6s2.1 3 1.4 4.9-1.5 2.6-2.9 3.4c-1.4.7-5.6.6-12 .7-1.6-.1-3.2.5-3.2 1.5s1.1 3.4 2 4.7c.9 1.4 2.6 3.5 1.9 7.9-.4 3-2.9 7.1-4.9 6-2-1.1-1.5-4-2.4-6.7-.9-2.7-2.7-5.1-3.9-6.1-1.1-1-3.2-2.6-4-4.6-.7-2-3-10.1-6.5-10.2"/><path d="M29.2 47.8h-6.6c-1.6 0-2.9-1.3-2.9-2.9l1-19.6c0-1.6 1.3-2.9 2.9-2.9h5.6c1.6 0 2.9 1.3 2.9 2.9v19.6c0 1.6-1.3 2.9-2.9 2.9z"/></g><circle clip-rule="evenodd" cx="26.4" cy="27.7" r="2.4"/></g></svg><svg width="106" height="106" viewBox="-10 -10 106 106" y="326"><path fill="#414141" d="M43 3c22.1 0 40 17.9 40 40S65.1 83 43 83 3 65.1 3 43 20.9 3 43 3m0-3C19.3 0 0 19.3 0 43s19.3 43 43 43 43-19.3 43-43S66.7 0 43 0z"/><path fill="none" stroke="#414141" stroke-width="3" stroke-miterlimit="10" d="M36.5 7.9s1.1 11.4 30.3 12.5m-14-1.9s-1.7 2.4-1.7 4.9m-6.1 54c-6.4-5.7-14.7-17.8-9.2-29.2S42.9 23.3 50.4 24s8.7 6.2 9.4 20.9c.7 5.2 11.1 30.3-14.8 32.5zM28.6 58.8c-3.3 1.2-7.4 1.3-12.5-.5-2.9-6.5-2.1-18.7 6.1-25.5s14-16.5 19.5-13.4c1.3.7 2.2 1.6 2.8 2.5m3.2-3.9s-1.4 2.3-4.5 2.5"/><path fill="none" stroke="#414141" stroke-width="3" stroke-miterlimit="10" d="M42.4 74.8c-1.5-4.3-4.8-7.5-1-20.8s3.7-31.1 10-29.9M45 77.4c22.3-7 8.7-23.8 9.9-33 1.2-9.2-.3-19.2-3-20.9"/><path fill="none" stroke="#414141" stroke-width="3" stroke-miterlimit="10" d="M51.1 23.8c0 8.2-1.7 20.8-.7 24 1 3.2 2.4 20.6-4.8 29.3"/></svg><svg width="106" height="106" viewBox="-10 -10 106 106" y="432"><path fill="#FFF" d="M59.6 44.9c-4.7 0-12.4-2.3-19.9-5.9-13.5-6.5-19.3-13.3-18.5-15 .2-.4 1.2-.9 3.4-.9 4.7 0 12.4 2.3 19.9 5.9C58 35.4 63.8 42.2 63 44c-.2.4-1.2.9-3.4.9z"/><path fill="#434343" d="M24.5 21.6v3c4.5 0 11.9 2.2 19.3 5.7 11.3 5.4 16.7 10.9 17.6 12.9-.3.1-.9.2-1.8.2-4.5 0-11.9-2.2-19.3-5.7-11.3-5.5-16.7-10.9-17.6-13 .3-.1.9-.2 1.8-.2v-2.9m0 0c-2.5 0-4.2.6-4.7 1.8-1.7 3.5 6.9 11.1 19.2 17 8.1 3.9 15.8 6 20.6 6 2.5 0 4.2-.6 4.7-1.8 1.7-3.5-6.9-11.1-19.2-17-8.1-3.9-15.8-6-20.6-6z"/><path fill="#FFF" d="M60.3 53.2c-2.6 0-5.3-.1-8-.4-6.4-.6-12.4-2-16.8-3.7-4.7-1.9-5.8-3.5-5.8-4.1.1-1.3 4.8-3.6 15.6-3.6 2.6 0 5.3.1 8 .4 14.9 1.5 22.7 6 22.5 7.8 0 1.2-4.7 3.6-15.5 3.6z"/><path fill="#434343" d="M45.4 39.8v3c2.5 0 5.2.1 7.8.4 12.5 1.3 19.4 4.6 20.9 6.2-1.3.9-5.7 2.3-13.9 2.3-2.5 0-5.2-.1-7.8-.4C39.9 50 33 46.7 31.5 45.1c1.3-.9 5.7-2.3 13.9-2.3v-3m0 0c-9.7 0-16.8 1.9-17.1 5-.4 3.9 10.3 8.1 23.8 9.5 2.8.3 5.6.4 8.1.4 9.7 0 16.8-1.9 17.1-5 .4-3.9-10.3-8.1-23.8-9.5-2.8-.3-5.5-.4-8.1-.4z"/><path fill="#FFF" d="M55.4 60.9c-4.7 0-10.7-1-16.9-2.8-14.4-4.1-21.3-9.9-20.7-11.8.2-.6 1.8-1.7 6.9-1.7 4.7 0 10.7 1 16.9 2.8 14.4 4.1 21.3 9.9 20.7 11.8-.2.5-1.9 1.7-6.9 1.7z"/><path fill="#434343" d="M24.6 43.1v3c4.6 0 10.5 1 16.5 2.7 12.1 3.5 18.3 8 19.5 9.8-.7.3-2.3.7-5.2.7-4.6 0-10.5-1-16.5-2.7-12.1-3.5-18.3-8-19.5-9.8.7-.3 2.3-.7 5.2-.7v-3m0 0c-4.6 0-7.8.9-8.3 2.8-1.1 3.8 8.7 9.9 21.7 13.6 6.6 1.9 12.7 2.8 17.4 2.8 4.6 0 7.8-.9 8.3-2.8 1.1-3.8-8.7-9.8-21.8-13.6-6.5-1.8-12.7-2.8-17.3-2.8z"/><path fill="#FFF" d="M21.4 48.8c-6.9 0-9.7-1.5-9.9-2.4-.4-1.9 6.9-7.1 21.6-10.1 4.9-1 9.8-1.5 13.9-1.5 6.9 0 9.7 1.5 9.9 2.4.4 1.9-6.9 7.1-21.6 10.1-4.9 1-9.8 1.5-13.9 1.5z"/><path fill="#434343" d="M47 36.3c4.9 0 7.3.8 8.2 1.2-1.3 1.7-7.9 5.7-20.2 8.2-4.8 1-9.6 1.5-13.6 1.5-4.9 0-7.3-.8-8.2-1.2 1.3-1.7 7.9-5.7 20.2-8.2 4.8-1 9.5-1.5 13.6-1.5m0-3c-4.1 0-9 .5-14.2 1.6-13.4 2.7-23.6 8-22.8 11.8.5 2.3 4.9 3.6 11.4 3.6 4.1 0 9-.5 14.2-1.6 13.4-2.7 23.6-8 22.8-11.8-.5-2.4-5-3.6-11.4-3.6z"/><path fill="#434343" d="M43 3c22.1 0 40 17.9 40 40S65.1 83 43 83 3 65.1 3 43 20.9 3 43 3m0-3C19.3 0 0 19.3 0 43s19.3 43 43 43 43-19.3 43-43S66.7 0 43 0z"/><path fill="#FFF" d="M28 60.4c-1.1 0-1.8-.2-2.1-.6-1-1.6 3.8-9.1 16.4-17.3 7.8-5.1 16.1-8.5 20.4-8.5 1.1 0 1.8.2 2.1.6.3.5.1 2.5-3.2 6.3-3.1 3.5-7.8 7.4-13.2 10.9-7.8 5.2-16 8.6-20.4 8.6z"/><path fill="#434343" d="M62.8 35.6h.6c-.6 2.1-5.3 8.2-15.8 15-8.8 5.7-16.2 8.2-19.6 8.2h-.6c.6-2.1 5.3-8.2 15.8-15 8.8-5.7 16.2-8.2 19.6-8.2m0-3c-4.6 0-12.8 3.2-21.2 8.7-11.4 7.4-19 16.1-16.9 19.3.6.9 1.7 1.3 3.3 1.3 4.6 0 12.8-3.2 21.2-8.7 11.4-7.4 19-16.1 16.9-19.3-.5-.9-1.7-1.3-3.3-1.3z"/><path fill="#FFF" stroke="#434343" stroke-width="3" stroke-linecap="round" stroke-miterlimit="10" d="M43.5 46.4c7.6-6 17.8-12.9 21.4-10.7M34.2 54.1s1.8-1.6 4.6-4"/></svg><svg width="106" height="106" viewBox="-10 -10 106 106" y="538"><path fill="#434343" d="M43 3c22.1 0 40 17.9 40 40S65.1 83 43 83 3 65.1 3 43 20.9 3 43 3m0-3C19.3 0 0 19.3 0 43s19.3 43 43 43 43-19.3 43-43S66.7 0 43 0z"/><path fill="none" stroke="#434343" stroke-width="3" stroke-linecap="round" stroke-linejoin="round" stroke-miterlimit="10" d="M56.9 68.7c0-4.5-2-4.5-2-9s2-4.5 2-9-2-4.5-2-9 2-4.5 2-9m-5.7 36c0-4.5-2-4.5-2-9s2-4.5 2-9m-5.6 18c0-4.5-2-4.5-2-9s2-4.5 2-9-2-4.5-2-9 2-4.5 2-9-2-4.5-2-9 2-4.5 2-9m-5.7 54c0-4.5-2-4.5-2-9s2-4.5 2-9-2-4.5-2-9 2-4.5 2-9-2-4.5-2-9m-3.6 45c0-4.5-2-4.5-2-9s2-4.5 2-9-2-4.5-2-9 2-4.5 2-9m-5.7 36c0-4.5-2-4.5-2-9s2-4.5 2-9-2-4.5-2-9"/></svg><svg width="106" height="106" viewBox="-10 -10 106 106" y="644"><path fill="#434343" d="M43 3c22.1 0 40 17.9 40 40S65.1 83 43 83 3 65.1 3 43 20.9 3 43 3m0-3C19.3 0 0 19.3 0 43s19.3 43 43 43 43-19.3 43-43S66.7 0 43 0z"/><path fill="none" stroke="#434343" stroke-width="3" stroke-linecap="round" stroke-linejoin="round" stroke-miterlimit="10" d="M54 25.2c-10.3 12.5-17.6 14-28.5 20.6-10.6 6.4-10.3 11-11 13.6 4.2.3 9.2 6.7 16.9 3.6"/><circle fill="none" stroke="#434343" stroke-width="3" stroke-linecap="round" stroke-linejoin="round" stroke-miterlimit="10" cx="26.7" cy="55" r="4.7"/><circle fill="none" stroke="#434343" stroke-width="3" stroke-linecap="round" stroke-linejoin="round" stroke-miterlimit="10" cx="37" cy="51" r="6.4"/><circle fill="none" stroke="#434343" stroke-width="3" stroke-linecap="round" stroke-linejoin="round" stroke-miterlimit="10" cx="48.5" cy="44.2" r="6.4"/><path fill="#FFF" stroke="#434343" stroke-width="3" stroke-linecap="round" stroke-linejoin="round" stroke-miterlimit="10" d="M54.8 27c-5.1 15.4-11.4 19.3-19.3 29.4-7.6 9.8-5.7 14-5.4 16.7 4.2-1.3 11.9 3.6 18.3-3.9S62.5 45.8 62.5 29"/><path fill="none" stroke="#434343" stroke-width="3" stroke-linecap="round" stroke-linejoin="round" stroke-miterlimit="10" d="M60.7 17.6s-4.9-.4-6 4.5c-.5 2.4-2.2 3.9-3.3 4.4 2.8.2 5.1-.8 5.1-.8l1.7 3.8 2.2-2.6s3.2 2.8 4.3 2.8c-.1-1.9-.3-4.2 0-6.2.3-1.5.1-5-4-5.9z"/><path fill="#FFF" stroke="#434343" stroke-width="3" stroke-linecap="round" stroke-linejoin="round" stroke-miterlimit="10" d="M60.7 17.6s1.8-4.6-2.6-5.7"/></svg><svg width="117" height="117" viewBox="-10 -10 117 117" y="750"><circle fill="none" stroke="#000" stroke-width="3" stroke-miterlimit="10" cx="48.5" cy="48.5" r="47"/><circle fill="none" stroke="#000" stroke-width=".895" stroke-miterlimit="10" cx="48.5" cy="48.6" r="26.3"/><circle fill="none" stroke="#000" stroke-width=".895" stroke-miterlimit="10" cx="48.5" cy="48.6" r="27.9"/><path d="M33.4 32.4l1.6 4.4 1.5-4.4h1.6v6.1h-1.3v-1.7l.1-2.9-1.6 4.5h-.9L32.9 34l.1 2.9v1.7h-1.2v-6.1h1.6zm9.4 4.8h-2.2l-.4 1.2h-1.3l2.3-6.1h1.2l2.3 6.1h-1.3l-.6-1.2zm-1.9-1h1.5l-.8-2.3-.7 2.3zm4.2 2.3v-6.1H47c.5 0 1 .1 1.4.4.4.2.7.6 1 1 .2.4.4.9.4 1.5v.3c0 .6-.1 1.1-.3 1.5s-.6.8-1 1c-.4.2-.9.4-1.4.4h-2zm1.2-5.1v4h.6c.5 0 .9-.2 1.1-.5.3-.3.4-.8.4-1.4v-.3c0-.6-.1-1.1-.4-1.4-.3-.3-.6-.5-1.1-.5h-.6zm8 2.4h-2.4v1.6h2.8v1h-4.1v-6.1h4.1v1h-2.8v1.4h2.4v1.1zm4.6 2.7h-1.2v-6.1h1.2v6.1zm6.1 0h-1.2l-2.4-4v4H60v-6.1h1.2l2.4 4v-4H65v6.1z"/><path fill-rule="evenodd" clip-rule="evenodd" d="M48.7 15.1l-3.3 1.7.7-3.6-2.7-2.6 3.7-.6 1.6-3.3 1.7 3.3 3.7.6-2.7 2.6.6 3.6zm0 71.6l-3.3 1.7.7-3.7-2.7-2.6 3.7-.5 1.6-3.4 1.7 3.4 3.7.5-2.7 2.6.6 3.7zm15-69.2L61 14.9l3.7-.5 1.6-3.4 1.7 3.4 3.7.5-2.7 2.6.6 3.7-3.3-1.8-3.3 1.8zm0 62.9L61 77.8l3.7-.6 1.6-3.3 1.7 3.3 3.7.6-2.7 2.6.6 3.7-3.3-1.8-3.3 1.8zM80.3 32L77 33.8l.6-3.7-2.7-2.6 3.7-.6 1.7-3.3 1.6 3.3 3.7.6-2.6 2.6.6 3.7zm0 37.3L77 71l.6-3.7-2.7-2.6 3.7-.5 1.7-3.3 1.6 3.3 3.7.5-2.6 2.6.6 3.7zm4.8-17.8l-3.3 1.7.6-3.7-2.7-2.6 3.7-.5 1.7-3.4 1.6 3.4 3.7.5-2.6 2.6.6 3.7zm-54-32.1l-3.3 1.8.6-3.7-2.6-2.6 3.7-.5 1.6-3.4 1.7 3.4 3.7.5-2.7 2.6.6 3.7zm0 62.9l-3.3 1.8.6-3.7-2.6-2.6 3.7-.6 1.6-3.3 1.7 3.3 3.7.6-2.7 2.6.6 3.7zM17.2 32l-3.3 1.8.6-3.7-2.7-2.6 3.7-.6 1.7-3.3 1.6 3.3 3.7.6-2.7 2.6.7 3.7zm0 37.3L13.9 71l.6-3.7-2.7-2.6 3.7-.5 1.7-3.3 1.6 3.3 3.7.5-2.7 2.6.7 3.7zm-4.8-17.8l-3.3 1.7.6-3.7L7 46.9l3.7-.5 1.7-3.4 1.6 3.4 3.7.5-2.7 2.6.7 3.7z"/><path d="M45.3 54.9h-8.9v6h10.4v3.7h-15V42.2h15v3.7H36.4v5.3h8.9v3.7zm17.8 3.8c0-.9-.3-1.5-.9-2-.6-.5-1.7-1-3.3-1.5-1.6-.5-2.9-1-3.8-1.5-2.5-1.4-3.8-3.2-3.8-5.6 0-1.2.3-2.3 1-3.2.7-.9 1.7-1.7 2.9-2.2 1.3-.5 2.7-.8 4.3-.8 1.6 0 3 .3 4.3.9s2.2 1.4 2.9 2.5 1 2.3 1 3.6h-4.6c0-1-.3-1.8-1-2.4s-1.6-.9-2.7-.9-2 .2-2.6.7c-.6.5-.9 1.1-.9 1.9 0 .7.4 1.3 1.1 1.8.7.5 1.8 1 3.2 1.4 2.6.8 4.5 1.8 5.7 2.9 1.2 1.2 1.8 2.6 1.8 4.4 0 1.9-.7 3.5-2.2 4.6-1.5 1.1-3.4 1.7-5.9 1.7-1.7 0-3.3-.3-4.7-.9-1.4-.6-2.5-1.5-3.2-2.6-.7-1.1-1.1-2.4-1.1-3.8h4.6c0 2.5 1.5 3.7 4.4 3.7 1.1 0 2-.2 2.6-.7.6-.6.9-1.2.9-2z"/></svg><svg width="117" height="117" viewBox="-10 -10 117 117" y="867"><defs><path id="a" d="M0 0h97v97H0z"/></defs><clipPath id="b"><use xlink:href="#a" overflow="visible"/></clipPath><circle clip-path="url(#b)" fill="none" stroke="#000" stroke-width="3" stroke-miterlimit="10" cx="48.5" cy="48.5" r="47"/><path clip-path="url(#b)" fill="none" stroke="#000" stroke-width=".489" stroke-miterlimit="10" d="M48.5 13.2c1 0 2 1 3 1.1 1 .1 2.1-.7 3.1-.5 1 .2 1.8 1.3 2.8 1.6 1 .3 2.2-.3 3.2 0s1.5 1.6 2.4 2c.9.4 2.3.1 3.1.6.9.5 1.2 1.9 2 2.4.8.6 2.2.4 3 1.1.8.7.9 2 1.6 2.8.7.7 2.1.8 2.8 1.6.7.8.5 2.2 1.1 3 .6.8 1.9 1.2 2.4 2 .5.9.1 2.2.6 3.1.4.9 1.7 1.5 2 2.4.3.9-.3 2.2 0 3.2s1.4 1.8 1.6 2.8c.2 1-.6 2.1-.5 3.1.1 1 1.1 2 1.1 3s-1 2-1.1 3c-.1 1 .7 2.1.5 3.1-.2 1-1.3 1.8-1.6 2.8-.3 1 .3 2.2 0 3.2s-1.6 1.5-2 2.4c-.4.9-.1 2.3-.6 3.1-.5.9-1.9 1.2-2.4 2-.6.8-.4 2.2-1.1 3-.7.8-2 .9-2.8 1.6-.7.7-.8 2.1-1.6 2.8-.8.6-2.2.5-3 1.1-.8.6-1.2 1.9-2 2.4-.9.5-2.2.1-3.1.6-.9.4-1.5 1.7-2.4 2-.9.3-2.2-.3-3.2 0s-1.8 1.4-2.8 1.6c-1 .2-2.1-.6-3.1-.5-1 .1-2 1.1-3 1.1s-2-1-3-1.1c-1-.1-2.1.7-3.1.5-1-.2-1.8-1.3-2.8-1.6-1-.3-2.2.3-3.2 0s-1.5-1.6-2.4-2c-.9-.4-2.3-.1-3.1-.6-.9-.5-1.2-1.9-2-2.4-.8-.6-2.2-.4-3-1.1-.8-.7-.9-2-1.6-2.8-.7-.7-2.1-.8-2.8-1.6-.6-.8-.5-2.2-1.1-3-.6-.8-1.9-1.2-2.4-2-.5-.9-.1-2.2-.6-3.1-.4-.9-1.7-1.5-2-2.4-.3-.9.3-2.2 0-3.2s-1.4-1.8-1.6-2.8c-.2-1 .6-2.1.5-3.1-.1-1-1.1-2-1.1-3s1-2 1.1-3c.1-1-.7-2.1-.5-3.1.2-1 1.3-1.8 1.6-2.8.3-1-.3-2.2 0-3.2s1.6-1.5 2-2.4c.4-.9.1-2.3.6-3.1.5-.9 1.9-1.2 2.4-2 .6-.8.4-2.2 1.1-3 .7-.8 2-.9 2.8-1.6.7-.7.8-2.1 1.6-2.8.8-.7 2.2-.5 3-1.1.8-.6 1.2-1.9 2-2.4.9-.5 2.2-.1 3.1-.6.9-.4 1.5-1.7 2.4-2 .9-.3 2.2.3 3.2 0s1.8-1.4 2.8-1.6c1-.2 2.1.6 3.1.5 1-.1 2-1.1 3-1.1z"/><path clip-path="url(#b)" fill="none" stroke="#000" stroke-width=".516" stroke-miterlimit="10" d="M48.5 11.3c1.1 0 2.1 1 3.2 1.1 1.1.1 2.3-.8 3.3-.6 1.1.2 1.9 1.4 2.9 1.7 1 .3 2.4-.4 3.4 0s1.6 1.7 2.6 2.2c1 .5 2.4.1 3.3.6.9.5 1.3 2 2.2 2.6.9.6 2.3.5 3.2 1.2.8.7.9 2.1 1.7 2.9.8.8 2.2.9 2.9 1.7.7.8.5 2.3 1.2 3.2.6.9 2 1.2 2.6 2.2.5.9.1 2.3.6 3.3s1.8 1.6 2.2 2.6c.4 1-.3 2.3 0 3.4.3 1 1.5 1.9 1.7 2.9.2 1-.7 2.2-.6 3.3.1 1.1 1.1 2.1 1.1 3.2s-1 2.1-1.1 3.2c-.1 1.1.8 2.3.6 3.3-.2 1.1-1.4 1.9-1.7 2.9-.3 1 .4 2.4 0 3.4s-1.7 1.6-2.2 2.6c-.5 1-.1 2.4-.6 3.3-.5.9-2 1.3-2.6 2.2-.6.9-.5 2.3-1.2 3.2-.7.8-2.2.9-2.9 1.7-.8.8-.9 2.2-1.7 2.9-.8.7-2.3.5-3.2 1.2-.9.6-1.2 2-2.2 2.6-.9.5-2.3.1-3.3.6s-1.6 1.8-2.6 2.2c-1 .4-2.3-.3-3.4 0-1 .3-1.9 1.5-2.9 1.7-1 .2-2.2-.7-3.3-.6-1.1.1-2.1 1.1-3.2 1.1s-2.1-1-3.2-1.1c-1.1-.1-2.3.8-3.3.6-1.1-.2-1.9-1.4-2.9-1.7-1-.3-2.4.4-3.4 0s-1.6-1.7-2.6-2.2c-1-.5-2.4-.1-3.3-.6-.9-.5-1.3-2-2.2-2.6-.9-.6-2.3-.5-3.2-1.2-.8-.7-.9-2.1-1.7-2.9-.8-.8-2.2-.9-2.9-1.7-.7-.8-.5-2.3-1.2-3.2-.6-.9-2-1.2-2.6-2.2-.5-.9-.1-2.3-.6-3.3s-1.8-1.6-2.2-2.6c-.4-1 .3-2.3 0-3.4-.3-1-1.5-1.9-1.7-2.9-.2-1 .7-2.2.6-3.3-.1-1.1-1.1-2.1-1.1-3.2s1-2.1 1.1-3.2c.1-1.1-.8-2.3-.6-3.3.2-1.1 1.4-1.9 1.7-2.9.3-1-.4-2.4 0-3.4s1.7-1.6 2.2-2.6c.5-1 .1-2.4.6-3.3.5-.9 2-1.3 2.6-2.2.6-.9.5-2.3 1.2-3.2.7-.8 2.1-.9 2.9-1.7.8-.8.9-2.2 1.7-2.9.8-.7 2.3-.5 3.2-1.2.9-.6 1.2-2 2.2-2.6.9-.5 2.3-.1 3.3-.6s1.6-1.8 2.6-2.2c1-.4 2.3.3 3.4 0 1-.3 1.9-1.5 2.9-1.7 1-.2 2.2.7 3.3.6 1.1-.1 2.1-1.1 3.2-1.1z"/><path clip-path="url(#b)" fill="none" stroke="#000" stroke-width=".543" stroke-miterlimit="10" d="M48.5 9.3c1.1 0 2.2 1.1 3.3 1.2 1.1.1 2.4-.8 3.5-.6 1.1.2 2 1.5 3.1 1.8 1.1.3 2.5-.4 3.5 0 1.1.4 1.7 1.8 2.7 2.3 1 .5 2.5.1 3.5.6 1 .6 1.4 2.1 2.3 2.7.9.6 2.5.5 3.3 1.2.9.7 1 2.3 1.8 3.1.8.8 2.3.9 3.1 1.8.7.9.6 2.4 1.2 3.3.6.9 2.1 1.3 2.7 2.3.6 1 .1 2.5.6 3.5s1.9 1.7 2.3 2.7c.4 1.1-.3 2.4 0 3.5s1.6 2 1.8 3.1c.2 1.1-.7 2.4-.6 3.5.1 1.1 1.2 2.2 1.2 3.3 0 1.1-1.1 2.2-1.2 3.3-.1 1.1.8 2.4.6 3.5-.2 1.1-1.5 2-1.8 3.1-.3 1.1.4 2.5 0 3.5-.4 1.1-1.8 1.7-2.3 2.7-.5 1-.1 2.5-.6 3.5-.6 1-2.1 1.4-2.7 2.3-.6.9-.5 2.5-1.2 3.3s-2.3 1-3.1 1.8c-.8.8-.9 2.3-1.8 3.1-.9.7-2.4.6-3.3 1.2-.9.6-1.3 2.1-2.3 2.7-1 .6-2.5.1-3.5.6s-1.7 1.9-2.7 2.3c-1.1.4-2.4-.3-3.5 0s-2 1.6-3.1 1.8c-1.1.2-2.4-.7-3.5-.6-1.1.1-2.2 1.2-3.3 1.2-1.1 0-2.2-1.1-3.3-1.2-1.1-.1-2.4.8-3.5.6-1.1-.2-2-1.5-3.1-1.8-1.1-.3-2.5.4-3.5 0-1.1-.4-1.7-1.8-2.7-2.3-1-.5-2.5-.1-3.5-.6-1-.6-1.4-2.1-2.3-2.7-.9-.6-2.5-.5-3.3-1.2-.9-.7-1-2.3-1.8-3.1-.8-.8-2.3-.9-3.1-1.8-.7-.9-.6-2.4-1.2-3.3-.6-.9-2.1-1.3-2.7-2.3-.6-1-.1-2.5-.6-3.5S12 63 11.6 62c-.4-1.1.3-2.4 0-3.5s-1.6-2-1.8-3.1c-.2-1.1.7-2.4.6-3.5-.1-1.1-1.2-2.2-1.2-3.3 0-1.1 1.1-2.2 1.2-3.3.1-1.1-.8-2.4-.6-3.5.2-1.1 1.5-2 1.8-3.1.3-1.1-.4-2.5 0-3.5.4-1.1 1.8-1.7 2.3-2.7.5-1 .1-2.5.6-3.5.6-1 2.1-1.4 2.7-2.3.6-.9.5-2.5 1.2-3.3.7-.9 2.3-1 3.1-1.8.8-.8.9-2.3 1.8-3.1.9-.7 2.4-.6 3.3-1.2.9-.6 1.3-2.1 2.3-2.7 1-.6 2.5-.1 3.5-.6s1.7-1.9 2.7-2.3c1.1-.4 2.4.3 3.5 0s2-1.6 3.1-1.8c1.1-.2 2.4.7 3.5.6 1.1-.1 2.2-1.2 3.3-1.2z"/><path clip-path="url(#b)" fill="none" stroke="#000" stroke-width=".571" stroke-miterlimit="10" d="M48.5 7.3c1.2 0 2.3 1.2 3.5 1.3 1.2.1 2.5-.8 3.7-.6 1.2.2 2.1 1.5 3.2 1.8 1.1.3 2.6-.4 3.7 0s1.8 1.9 2.8 2.4c1.1.5 2.6.1 3.7.7 1 .6 1.4 2.2 2.4 2.8 1 .7 2.6.5 3.5 1.3.9.8 1 2.4 1.9 3.2.8.8 2.5 1 3.2 1.9.8.9.6 2.5 1.3 3.5.7 1 2.3 1.4 2.8 2.4.6 1 .2 2.6.7 3.7.5 1.1 2 1.7 2.4 2.8.4 1.1-.3 2.6 0 3.7s1.6 2.1 1.8 3.2c.2 1.2-.7 2.5-.6 3.7.1 1.2 1.3 2.3 1.3 3.5 0 1.2-1.2 2.3-1.3 3.5-.1 1.2.8 2.5.6 3.7-.2 1.2-1.5 2.1-1.8 3.2-.3 1.1.4 2.6 0 3.7s-1.9 1.8-2.4 2.9c-.5 1.1-.1 2.6-.7 3.7-.6 1-2.2 1.4-2.8 2.4-.7 1-.5 2.6-1.3 3.5-.8.9-2.4 1-3.2 1.9-.8.8-1 2.5-1.9 3.2-.9.8-2.5.6-3.5 1.3-1 .7-1.4 2.3-2.4 2.8-1 .6-2.6.2-3.7.7-1.1.5-1.7 2-2.9 2.4-1.1.4-2.6-.3-3.7 0s-2.1 1.6-3.2 1.8c-1.2.2-2.5-.7-3.7-.6-1.2.1-2.3 1.3-3.5 1.3-1.2 0-2.3-1.2-3.5-1.3-1.2-.1-2.5.8-3.7.6-1.2-.2-2.1-1.5-3.2-1.8-1.1-.3-2.6.4-3.7 0s-1.8-1.9-2.9-2.4c-1.1-.5-2.6-.1-3.7-.7-1-.6-1.4-2.2-2.4-2.8-1-.7-2.6-.5-3.5-1.3-.9-.8-1-2.4-1.9-3.2-.8-.8-2.5-1-3.2-1.9-.8-.9-.6-2.5-1.3-3.5-.7-1-2.3-1.4-2.8-2.4-.6-1-.2-2.6-.7-3.7-.5-1.1-2-1.7-2.4-2.9-.4-1.1.3-2.6 0-3.7s-1.6-2.1-1.8-3.2c-.2-1.2.7-2.5.6-3.7-.1-1.2-1.3-2.3-1.3-3.5 0-1.2 1.2-2.3 1.3-3.5.1-1.2-.8-2.5-.6-3.7.2-1.2 1.5-2.1 1.8-3.2.3-1.1-.4-2.6 0-3.7s1.9-1.8 2.4-2.9c.5-1.1.1-2.6.7-3.7.6-1 2.2-1.4 2.8-2.4.7-1 .5-2.6 1.3-3.5.8-.9 2.4-1 3.2-1.9.8-.8 1-2.5 1.9-3.2.9-.8 2.5-.6 3.5-1.3 1-.7 1.4-2.3 2.4-2.8 1-.6 2.6-.2 3.7-.7 1.1-.5 1.7-2 2.8-2.4 1.1-.4 2.6.3 3.7 0s2.1-1.6 3.2-1.8c1.2-.2 2.5.7 3.7.6 1.4 0 2.5-1.2 3.7-1.2z"/><path clip-path="url(#b)" fill="none" stroke="#000" stroke-width=".598" stroke-miterlimit="10" d="M48.5 5.3c1.3 0 2.4 1.2 3.7 1.3 1.2.1 2.6-.8 3.8-.6 1.2.2 2.2 1.6 3.4 1.9 1.2.3 2.7-.4 3.9 0 1.2.4 1.9 2 3 2.5s2.8.1 3.8.7c1.1.6 1.5 2.3 2.5 3 1 .7 2.7.5 3.7 1.3.9.8 1.1 2.5 2 3.4s2.6 1 3.4 2c.8.9.6 2.6 1.3 3.7.7 1 2.4 1.4 3 2.5.6 1.1.2 2.7.7 3.8.5 1.1 2.1 1.8 2.5 3 .4 1.2-.3 2.7 0 3.9.3 1.2 1.7 2.1 1.9 3.4.2 1.2-.8 2.6-.7 3.8.1 1.2 1.3 2.4 1.3 3.7 0 1.3-1.2 2.4-1.3 3.7-.1 1.2.9 2.6.7 3.8-.2 1.2-1.6 2.2-1.9 3.4-.3 1.2.4 2.7 0 3.9-.4 1.2-2 1.9-2.5 3s-.1 2.8-.7 3.8c-.6 1.1-2.3 1.5-3 2.5-.7 1-.5 2.7-1.3 3.7-.8.9-2.5 1.1-3.4 2-.9.9-1 2.6-2 3.4-.9.8-2.6.6-3.7 1.3-1 .7-1.4 2.4-2.5 3-1.1.6-2.7.2-3.8.7-1.1.5-1.8 2.1-3 2.5-1.2.4-2.7-.3-3.9 0-1.2.3-2.1 1.7-3.4 1.9-1.2.2-2.6-.8-3.8-.7-1.2.1-2.4 1.3-3.7 1.3-1.3 0-2.4-1.2-3.7-1.3-1.2-.1-2.6.9-3.8.7-1.2-.2-2.2-1.6-3.4-1.9-1.2-.3-2.7.4-3.9 0-1.2-.4-1.9-2-3-2.5s-2.8-.1-3.8-.7c-1.1-.6-1.5-2.3-2.5-3-1-.7-2.7-.5-3.7-1.3-.9-.8-1.1-2.5-2-3.4s-2.6-1-3.4-2c-.8-.9-.6-2.6-1.3-3.7-.7-1-2.4-1.4-3-2.5-.6-1.1-.2-2.7-.7-3.8-.5-1.1-2.1-1.8-2.5-3-.4-1.2.3-2.7 0-3.9-.2-1.3-1.6-2.3-1.8-3.5-.2-1.2.8-2.6.7-3.8-.1-1.2-1.3-2.4-1.3-3.7 0-1.3 1.2-2.4 1.3-3.7 0-1.2-.9-2.6-.7-3.8.2-1.2 1.6-2.2 1.9-3.4.3-1.2-.4-2.7 0-3.9.4-1.2 2-1.9 2.5-3s.1-2.8.7-3.8c.6-1.1 2.3-1.5 3-2.5.7-1 .5-2.7 1.3-3.7.8-.9 2.5-1.1 3.4-2 .9-.9 1-2.6 2-3.4.9-.8 2.6-.6 3.7-1.3 1-.7 1.4-2.4 2.5-3 1.1-.6 2.7-.2 3.8-.7 1.1-.5 1.8-2.1 3-2.5 1.2-.4 2.7.3 3.9 0 1.1-.2 2.1-1.6 3.3-1.8 1.2-.2 2.6.8 3.8.7 1.3-.2 2.4-1.4 3.7-1.4z"/><circle clip-path="url(#b)" fill="none" stroke="#000" stroke-width=".895" stroke-miterlimit="10" cx="48.5" cy="48.5" r="30.9"/><g clip-path="url(#b)"><path d="M40.1 45.7c-2.8 0-5.4-2-7.3-3.4-1.5-1.1-3.1-2.3-3.8-1.9-.3.2-.7.1-.9-.2-.2-.3-.3-.6-.1-.9 5.2-7.8 10.1-8.2 13.3-7.1.3.1.5.3.5.6.4 3.9 3.7 7.1 4.2 7.5.1.1.2.1.2.2.4.6-.2 1.5-.4 1.8-1.8 2.5-3.8 3.4-5.7 3.4zm-10-6.8c1.1.3 2.3 1.2 3.6 2.2 4.2 3.2 7.4 5 11 .3 0-.1.1-.1.1-.2-1-1-3.7-4-4.3-7.7-3.5-1-7 .8-10.4 5.4z"/></g><g clip-path="url(#b)"><path d="M45.7 41.7c-.2 0-.4-.1-.5-.2-.9-.9-5.6-5.5-4.8-10.8.5-3.5 3.3-6.5 8.3-8.8.3-.1.7-.1.9.2.2.3.2.6 0 .9-.4.6.6 2.5 1.5 4.1.7 1.4 1.6 2.9 2.1 4.5.1.3 0 .7-.4.9-3.9 2-5.8 6.7-6.4 8.6-.1.2-.3.4-.5.5-.1.1-.1.1-.2.1zm2.4-17.8c-3.7 2-5.8 4.3-6.2 7-.6 3.6 2.1 7.1 3.5 8.6.9-2.3 2.8-6 6.2-8-.5-1.3-1.2-2.6-1.8-3.7-.8-1.4-1.5-2.7-1.7-3.9z"/></g><g clip-path="url(#b)"><path d="M54.8 48.3c-3.1 0-6.3-1.9-10-5.7-.2-.2-.2-.4-.2-.7.1-.4 2.2-8.9 8.9-11.2 4.5-1.5 9.8.1 15.9 4.9.3.2.4.6.2.9-.1.3-.5.5-.8.4-1.2-.2-2.6 1.8-4.1 3.9-2.3 3.2-5.1 7.1-9.4 7.4-.1.1-.3.1-.5.1zm-8.6-6.5c3.4 3.5 6.4 5.1 9 5 3.6-.2 6.1-3.7 8.3-6.8 1.3-1.8 2.5-3.4 3.8-4.2-5.1-3.7-9.5-5-13.2-3.7-5.2 1.7-7.4 8.1-7.9 9.7z"/></g><path clip-path="url(#b)" d="M59.1 35.6c-1.3-.3-2.6-.5-3.9-.3-1.3.1-2.6.5-3.7 1.1-1.2.6-2.2 1.4-3.2 2.4-.9.9-1.8 2-2.4 3.2-.1.1-.3.2-.4.1-.1-.1-.2-.3-.1-.4.7-1.3 1.5-2.4 2.4-3.4 1-1 2.1-1.9 3.3-2.6 1.2-.7 2.6-1.2 4-1.3 1.4-.2 2.8 0 4.2.2.3 0 .5.3.4.6-.1.2-.3.4-.6.4zm-14.4 4.9c-.7-.8-1.5-1.6-2.3-2.3-.9-.7-1.8-1.2-2.9-1.5-1-.3-2.1-.4-3.2-.2-1.1.1-2.1.7-3 1.3-.1.1-.3 0-.4-.1-.1-.1 0-.3.1-.4 1-.6 2-1.3 3.2-1.5 1.2-.2 2.4-.2 3.6.1 1.1.3 2.2.9 3.2 1.6 1 .7 1.8 1.5 2.6 2.4.2.2.1.5-.1.7-.3.2-.6.1-.8-.1z"/><path clip-path="url(#b)" d="M45.4 41c-.7-1.1-1.1-2.2-1.5-3.4-.3-1.2-.5-2.4-.5-3.6 0-.6.1-1.2.1-1.8.1-.6.2-1.2.5-1.8.4-1.2 1-2.2 1.7-3.2.1-.1.3-.2.4-.1.1.1.2.3.1.4-.6 1-1.2 2-1.5 3.1-.2.5-.3 1.1-.4 1.7 0 .6-.1 1.1-.1 1.7 0 1.1.2 2.3.6 3.3.3 1.1.8 2.1 1.4 3.1.2.2.1.5-.1.7-.2.2-.6.1-.7-.1z"/><path d="M34.1 57.8h-1.3l-2.6-4.2v4.2h-1.3v-6.5h1.3l2.6 4.3v-4.3h1.3v6.5zm4.9-1.3h-2.3l-.4 1.3h-1.4l2.4-6.5h1.2l2.4 6.5h-1.4l-.5-1.3zm-2-1.1h1.6l-.8-2.4-.8 2.4zm8.8-3h-2v5.4h-1.3v-5.4h-2v-1.1h5.3v1.1zm5.6-1v4.3c0 .7-.2 1.3-.7 1.7-.4.4-1 .6-1.8.6s-1.4-.2-1.8-.6c-.4-.4-.7-.9-.7-1.6v-4.3h1.3v4.3c0 .4.1.7.3.9.2.2.5.3.8.3.7 0 1.1-.4 1.1-1.2v-4.3h1.5zm3.5 4h-1.1v2.4h-1.3v-6.5h2.4c.8 0 1.4.2 1.8.5s.6.8.6 1.4c0 .4-.1.8-.3 1.1-.2.3-.5.5-.9.7l1.4 2.6v.1h-1.4l-1.2-2.3zm-1.1-1h1.1c.3 0 .6-.1.8-.3.2-.2.3-.4.3-.7 0-.3-.1-.5-.3-.7-.2-.2-.4-.3-.8-.3h-1.1v2zm8.1 2.1h-2.3l-.4 1.3h-1.4l2.4-6.5h1.2l2.4 6.5h-1.4l-.5-1.3zM60 55.4h1.6l-.8-2.4-.8 2.4zm5.7 1.3h2.8v1.1h-4.2v-6.5h1.3v5.4zM36.3 71.3h-1.6v-7.8l-2.4.8v-1.4l3.8-1.4h.2v9.8zm9.7-4.1c0 1.4-.3 2.5-.8 3.2-.5.7-1.3 1.1-2.4 1.1-1.1 0-1.8-.3-2.4-1-.5-.7-.8-1.7-.8-3.1v-1.7c0-1.4.3-2.4.8-3.1.5-.7 1.3-1 2.4-1 1.1 0 1.9.3 2.4 1s.8 1.7.8 3.1v1.5zm-1.6-1.9c0-.9-.1-1.6-.4-2s-.6-.6-1.2-.6c-.5 0-.9.2-1.2.6s-.4 1-.4 1.9v2.2c0 .9.1 1.6.4 2 .3.4.7.7 1.2.7s.9-.2 1.2-.6.4-1.1.4-1.9v-2.3zm9.4 1.9c0 1.4-.3 2.5-.8 3.2s-1.3 1.1-2.4 1.1c-1.1 0-1.8-.3-2.4-1-.5-.7-.8-1.7-.8-3.1v-1.7c0-1.4.3-2.4.8-3.1.5-.7 1.3-1 2.4-1 1.1 0 1.9.3 2.4 1s.8 1.7.8 3.1v1.5zm-1.7-1.9c0-.9-.1-1.6-.4-2-.3-.4-.6-.6-1.2-.6-.5 0-.9.2-1.2.6-.3.4-.4 1-.4 1.9v2.2c0 .9.1 1.6.4 2 .3.4.7.7 1.2.7s.9-.2 1.2-.6c.3-.4.4-1.1.4-1.9v-2.3zm3-1.9c0-.6.2-1.1.6-1.4s.9-.6 1.5-.6 1.1.2 1.5.6c.4.4.6.9.6 1.5v.5c0 .6-.2 1.1-.6 1.4-.4.4-.9.6-1.5.6s-1.1-.2-1.5-.6c-.4-.4-.6-.9-.6-1.5v-.5zm1.2.5c0 .3.1.6.3.7.2.2.4.3.7.3.3 0 .5-.1.7-.3.2-.2.3-.4.3-.8v-.5c0-.3-.1-.6-.3-.8-.2-.2-.4-.3-.7-.3-.3 0-.5.1-.7.3s-.3.5-.3.8v.6zm1.2 6.6l-.8-.5 4.8-7.6.8.5-4.8 7.6zm2.3-1.6c0-.6.2-1.1.6-1.5.4-.4.9-.6 1.5-.6s1.1.2 1.5.6c.4.4.6.9.6 1.5v.5c0 .6-.2 1.1-.6 1.4-.4.4-.9.6-1.5.6s-1.1-.2-1.5-.6-.6-.9-.6-1.5v-.4zm1.2.5c0 .3.1.6.3.7.2.2.4.3.7.3.3 0 .5-.1.7-.3.2-.2.2-.4.2-.8v-.5c0-.3-.1-.6-.3-.7s-.4-.3-.7-.3c-.3 0-.5.1-.7.3-.2.2-.2.5-.2.8v.5z"/></svg><svg width="117.8" height="117" viewBox="-10 -10 117.8 117" y="984"><path d="M48.7 1.5v13m4.1-12.8l-1.2 12.9m5.2-12.4L54.6 15m6.2-11.9l-3.3 12.5m7.2-11.3l-4.4 12.2m8.2-10.6L63 17.7m9.2-9.9L65.7 19m9.9-9l-7.4 10.6m10.7-8.1l-8.4 9.9m11.4-7.1l-9.2 9.1m12-6.1l-10 8.3m12.5-5.1L76.5 29m12.9-4l-11.3 6.5m13.2-2.9l-11.8 5.5m13.3-1.7l-12.2 4.5m13.5-.6l-12.6 3.4m13.5.6l-12.8 2.3m13.3 1.8l-13 1.1m13.2 3h-13m12.8 4.1l-13-1.1M95 56.6l-12.8-2.2m11.9 6.3l-12.6-3.4m11.3 7.3l-12.2-4.5m10.7 8.3l-11.8-5.5m9.9 9.1l-11.3-6.5m9.1 9.9L76.5 68m8.2 10.7l-10-8.4m7.2 11.4l-9.2-9.2m6.2 12l-8.4-10M75.6 87l-7.4-10.7m4 12.9l-6.5-11.3m2.8 13.2L63 79.3m1.7 13.4l-4.4-12.3m.5 13.5l-3.3-12.6m-.7 13.5L54.6 82m-1.8 13.3l-1.2-12.9m-2.9 13.1v-13m-4.1 12.8l1.1-12.9m-5.2 12.4L42.8 82m-6.3 11.9l3.4-12.6m-7.3 11.4L37 80.4m-8.2 10.7l5.5-11.8m-9.1 9.9l6.5-11.3m-10 9.1l7.5-10.7m-10.7 8.2l8.3-10m-11.4 7.2l9.2-9.2m-11.9 6.2l9.9-8.4m-12.4 5.1L20.8 68M8 72l11.2-6.5M6.1 68.4l11.8-5.5M4.5 64.6l12.2-4.5m-13.4.6l12.5-3.4m-13.4-.7l12.8-2.2M1.8 52.6l13-1.1m-13.1-3h13M1.8 44.4l13 1.1M2.4 40.3l12.8 2.3M3.3 36.3l12.5 3.4M4.5 32.4l12.2 4.5M6.1 28.6l11.8 5.5M8 25l11.2 6.5m-9-10L20.8 29m-8.1-10.7l9.9 8.3m-7.2-11.3l9.2 9.1m-6.1-11.9l8.3 9.9M21.7 10l7.5 10.6m-4-12.8L31.7 19M28.8 5.9l5.5 11.8M32.6 4.3L37 16.5m-.5-13.4l3.4 12.5m.6-13.4L42.8 15m1.8-13.3l1.1 12.9" fill="none" stroke="#000" stroke-width=".5" stroke-miterlimit="10"/><path fill="none" stroke="#000" stroke-width=".895" stroke-miterlimit="10" d="M76 68.5c4.1-5.6 6.5-12.5 6.5-20 0-7.3-2.3-14-6.2-19.5H20.6c-3.9 5.5-6.2 12.2-6.2 19.5 0 7.5 2.4 14.4 6.5 20H76z"/><path d="M36.7 38.7c0 .7-.3 1.2-.7 1.6s-1 .6-1.7.6c-.8 0-1.4-.3-1.9-.8s-.7-1.3-.7-2.2v-.4c0-.6.1-1.1.3-1.6.2-.5.5-.8.9-1s.8-.4 1.4-.4c.7 0 1.3.2 1.7.6.4.4.7.9.8 1.6h-1.3c0-.4-.1-.7-.3-.9s-.5-.3-.9-.3-.7.2-.9.5-.4.8-.4 1.4v.5c0 .7.1 1.2.3 1.5s.5.5 1 .5c.4 0 .7-.1.9-.3s.3-.5.3-.8h1.2v-.1zm5.9 2.1h-1.3v-2.6h-2.5v2.6h-1.3v-6.2h1.3v2.5h2.5v-2.5h1.3v6.2zm6.1-3c0 .6-.1 1.1-.3 1.6s-.5.8-.9 1.1-.9.4-1.4.4-1-.1-1.4-.4c-.4-.2-.7-.6-.9-1.1s-.3-1-.3-1.6v-.3c0-.6.1-1.1.3-1.6s.5-.8.9-1.1c.4-.2.9-.4 1.4-.4s1 .1 1.4.4.7.6.9 1.1.3 1 .3 1.6v.3zm-1.3-.2c0-.6-.1-1.1-.3-1.5-.2-.3-.6-.5-1-.5s-.8.2-1 .5-.3.8-.4 1.5v.3c0 .6.1 1.1.3 1.5.2.3.6.5 1 .5s.8-.2 1-.5.3-.8.3-1.5v-.3h.1zm3.6 3.2h-1.3v-6.2H51v6.2zm6-2.1c0 .7-.3 1.2-.7 1.6s-1 .6-1.7.6c-.8 0-1.4-.3-1.9-.8s-.7-1.3-.7-2.2v-.4c0-.6.1-1.1.3-1.6s.5-.8.9-1 .8-.4 1.4-.4c.7 0 1.3.2 1.7.6.4.4.7.9.8 1.6h-1.3c0-.4-.1-.7-.3-.9s-.5-.3-.9-.3-.7.2-.9.5-.3.8-.3 1.4v.5c0 .7.1 1.2.3 1.5s.5.5 1 .5c.4 0 .7-.1.9-.3s.3-.5.3-.8l1.1-.1zm4.5-.6h-2.4v1.6H62v1h-4.1v-6.2H62v1h-2.9V37h2.4v1.1zM33.4 62.2H23.1v-1l5.6-6.4c.9-1.1 1.6-2 1.9-2.7.4-.7.5-1.4.5-2 0-1-.3-1.9-.9-2.5s-1.4-.9-2.5-.9-2 .4-2.7 1.1c-.7.7-1 1.6-1 2.8h-1.3c0-.9.2-1.8.6-2.5.4-.8 1-1.4 1.8-1.8.8-.4 1.6-.6 2.6-.6 1.5 0 2.7.4 3.5 1.2s1.3 1.9 1.3 3.2c0 .8-.2 1.6-.7 2.5s-1.3 2-2.5 3.4l-4.6 5h8.6l.1 1.2zm12.4-6.9c0 2.3-.4 4.1-1.3 5.3s-2.1 1.8-3.8 1.8c-1.6 0-2.9-.6-3.7-1.8s-1.3-2.9-1.3-5.1v-2.9c0-2.3.4-4.1 1.3-5.2.9-1.2 2.1-1.8 3.8-1.8 1.6 0 2.9.6 3.7 1.7.9 1.1 1.3 2.8 1.3 5.1v2.9zm-1.4-2.9c0-1.9-.3-3.3-.9-4.3-.6-1-1.5-1.4-2.8-1.4-1.2 0-2.1.5-2.8 1.4-.5.9-.9 2.3-.9 4.2v3.2c0 1.9.3 3.3 1 4.3.6 1 1.6 1.5 2.8 1.5s2.1-.5 2.7-1.5.9-2.4.9-4.3v-3.1zM55 62.2h-1.4V47.4L49.1 49v-1.3l5.6-2.1h.3v16.6zm16.6-15.7l-7 15.6h-1.4l7-15.3h-9.3v-1.2h10.8l-.1.9zM48.7 17.2L50 20l3.1.5-2.2 2.1.5 3.1-2.7-1.4-2.8 1.4.5-3.1-2.2-2.1 3.1-.5zm10.9 2.2l1 2.1 2.3.3-1.7 1.6.4 2.3-2-1.1-2.1 1.1.4-2.3-1.6-1.6 2.3-.3zm-21.8 0l1 2.1 2.3.3-1.7 1.6.4 2.3-2-1.1-2.1 1.1.4-2.3-1.7-1.6 2.3-.3zm10.9 51.4l1.3 2.8 3.1.4-2.2 2.2.5 3.1-2.7-1.5-2.8 1.5.5-3.1-2.2-2.2 3.1-.4zm10.9.1l1 2.1 2.3.3-1.7 1.7.4 2.3-2-1.1-2.1 1.1.4-2.3-1.6-1.7 2.3-.3zm-21.8 0l1 2.1 2.3.3-1.7 1.7.4 2.3-2-1.1-2.1 1.1.4-2.3-1.7-1.7 2.3-.3z"/><path fill="none" stroke="#000" stroke-width=".895" stroke-miterlimit="10" d="M48.5 82.5c-18.8 0-34-15.2-34-34s15.2-34 34-34 34 15.2 34 34-15.2 34-34 34z"/><circle fill="none" stroke="#000" stroke-width="3" stroke-miterlimit="10" cx="48.5" cy="48.5" r="47"/></svg><svg width="37.1" height="37.1" viewBox="-10 -10 37.1 37.1" y="1101"><path clip-path="url(#b)" fill="#414141" d="M8.6 17.1C3.8 17.1 0 13.3 0 8.6 0 3.8 3.8 0 8.6 0s8.6 3.8 8.6 8.6c-.1 4.7-3.9 8.5-8.6 8.5M8.6 2C4.9 2 2 4.9 2 8.6c0 3.6 2.9 6.6 6.6 6.6s6.6-2.9 6.6-6.6c-.1-3.7-3-6.6-6.6-6.6"/><path clip-path="url(#b)" fill="#414141" d="M8.5 14c-.3 0-.6-.2-.8-.4L3.3 7.1c-.3-.5-.2-1.1.2-1.4.5-.3 1.1-.2 1.4.3l3.4 5.1L14.1.6c.3-.5.9-.6 1.4-.4.5.3.7.9.4 1.4L9.3 13.5c-.1.3-.4.5-.8.5"/></svg><svg width="119" height="119" viewBox="-10 -10 119 119" y="1139"><path clip-rule="evenodd" fill="none" stroke="#434343" stroke-width="3" stroke-linecap="round" stroke-linejoin="round" stroke-miterlimit="10" d="M49.5 1.5c26.5 0 48 21.5 48 48s-21.5 48-48 48-48-21.5-48-48 21.5-48 48-48z"/><path fill="none" stroke="#434343" stroke-width="3" stroke-linecap="round" stroke-linejoin="round" stroke-miterlimit="10" d="M26.8 18.6h45.3v64.3H26.8z"/><path fill="none" stroke="#434343" stroke-width="3" stroke-linecap="round" stroke-linejoin="round" stroke-miterlimit="10" d="M31.6 65.4h35.7v10.2H31.6zm25.8-23H31.6V32.2h25.8M37.3 70.5h24.4"/><path fill="#424A4E" d="M60.4 41.5c-.4 0-.8-.2-1.1-.5l-3.5-3.6c-.6-.6-.5-1.5 0-2.1.6-.6 1.5-.6 2.1 0l2.1 2.2 5-8.2c.4-.7 1.3-.9 2.1-.5.7.4.9 1.4.5 2.1l-6 9.9c-.2.4-.7.7-1.1.7h-.1zm0 15.5c-.4 0-.8-.2-1.1-.5l-3.5-3.6c-.6-.6-.5-1.5 0-2.1.6-.6 1.5-.5 2.1 0L60 53l5-8.2c.4-.7 1.3-.9 2.1-.5.7.4.9 1.4.5 2.1l-6 9.9c-.2.4-.7.7-1.1.7h-.1z"/><path fill="none" stroke="#434343" stroke-width="3" stroke-linecap="round" stroke-linejoin="round" stroke-miterlimit="10" d="M57.4 57.8H31.6V47.6h25.8M26.8 24.4h45.4"/></svg><svg width="119" height="119" viewBox="-10 -10 119 119" y="1258"><path clip-rule="evenodd" fill="none" stroke="#434343" stroke-width="3" stroke-linecap="round" stroke-linejoin="round" stroke-miterlimit="10" d="M49.5 1.5c26.5 0 48 21.5 48 48s-21.5 48-48 48-48-21.5-48-48 21.5-48 48-48z"/><path fill="none" stroke="#434343" stroke-width="3" stroke-linecap="round" stroke-linejoin="round" stroke-miterlimit="10" d="M65.6 34.3c0 8.9-6 21.2-16.1 21.2S33.4 43.2 33.4 34.3s7.2-16.1 16.1-16.1 16.1 7.2 16.1 16.1z"/><path fill="none" stroke="#434343" stroke-width="3" stroke-linecap="round" stroke-linejoin="round" stroke-miterlimit="10" d="M36.7 36.9s13.5 1.9 18.3-9.3c2.8 4.5 4.5 8 10.3 7m-7.7 18.1l.6 9.8c6.7 1.2 13.9 4.7 21.5 24M41.9 52.7l-.6 9.8c-6.7 1.2-13.9 4.7-21.5 24"/><path fill="#424A4E" d="M32.2 49.8c-.8 0-1.6-.2-2.3-.7-1-.6-1.7-1.6-1.9-2.7l-2-8.9c-.5-2.3 1-4.7 3.3-5.2l3.7-.8c.4-.1.9 0 1.2.3.4.3.6.7.6 1.1v.7c.1 2.8.3 7.1 3.6 13.1.2.4.2.9 0 1.4s-.6.7-1.1.8l-4.3.8c-.1 0-.4.1-.8.1zm-.3-15l-1.9.4c-.7.2-1.2.9-1 1.6l2 8.9c.1.3.3.6.6.8.3.2.7.3 1 .2l2.3-.4c-2.4-5-2.8-8.9-3-11.5zm35 14.9c-.3 0-.6 0-.9-.1l-4.2-.8c-.5-.1-.9-.4-1.1-.8s-.2-.9 0-1.4c3.3-6 3.5-10.3 3.6-13.1v-.7c0-.4.2-.8.6-1.1.4-.3.8-.4 1.2-.3l3.7.8c2.3.5 3.8 2.8 3.3 5.2l-2 8.9c-.5 2.1-2.3 3.4-4.2 3.4zm-2.7-3.4l2.3.4c.4.1.8 0 1.1-.2.3-.2.5-.5.6-.8l2-8.9c.2-.7-.3-1.4-1-1.6l-1.9-.4c-.3 2.6-.7 6.5-3.1 11.5z"/><path fill="#424A4E" d="M69.7 35.1c-.8 0-1.5-.7-1.5-1.5 0-10.3-8.4-18.7-18.7-18.7-10.3 0-18.7 8.4-18.7 18.7 0 .8-.7 1.5-1.5 1.5s-1.5-.7-1.5-1.5c0-12 9.7-21.7 21.7-21.7s21.7 9.7 21.7 21.7c0 .9-.6 1.5-1.5 1.5zm-25 27.4c-9.5 0-12.9-12.6-13.3-14-.2-.8.3-1.6 1.1-1.8.8-.2 1.6.3 1.8 1.1.3 1.2 3.2 11.7 10.4 11.7.8 0 1.5.7 1.5 1.5s-.6 1.5-1.5 1.5z"/><path fill="#424A4E" d="M52.1 65.2h-4.7c-2.3 0-4.2-1.9-4.2-4.2s1.9-4.2 4.2-4.2h4.7c2.3 0 4.2 1.9 4.2 4.2s-1.9 4.2-4.2 4.2zm-4.7-5.3c-.6 0-1.2.5-1.2 1.2s.5 1.2 1.2 1.2h4.7c.6 0 1.2-.5 1.2-1.2s-.5-1.2-1.2-1.2h-4.7z"/></svg><svg width="119" height="119" viewBox="-10 -10 119 119" y="1377"><path clip-rule="evenodd" fill="none" stroke="#434343" stroke-width="3" stroke-linecap="round" stroke-linejoin="round" stroke-miterlimit="10" d="M49.5 1.5c26.5 0 48 21.5 48 48s-21.5 48-48 48-48-21.5-48-48 21.5-48 48-48z"/><path clip-rule="evenodd" fill="none" stroke="#434343" stroke-width="3" stroke-linecap="round" stroke-linejoin="round" stroke-miterlimit="10" d="M80 65.7c1-2.4 5-5.1 4 1.8s-4.9 17.1-8.3 17.1c-2.3 0-1.6-4.7-.8-6.2m8.3-15.3l11.6 2.2m-19 19.3l3.4 2.1"/><path fill="#424A4E" d="M46.3 38H30.7c-.8 0-1.5-.7-1.5-1.5v-6.2c0-.8.7-1.5 1.5-1.5h15.6c.8 0 1.5.7 1.5 1.5v6.2c0 .8-.7 1.5-1.5 1.5zm-14.1-3h12.6v-3.2H32.2V35zm35.5 3H51.2c-.8 0-1.5-.7-1.5-1.5v-6.2c0-.8.7-1.5 1.5-1.5h16.5c.8 0 1.5.7 1.5 1.5v6.2c0 .8-.7 1.5-1.5 1.5zm-15-3h13.5v-3.2H52.7V35z"/><path fill="#424A4E" d="M66.2 58c-.8 0-1.5-.7-1.5-1.5V38H51.2c-.8 0-1.5-.7-1.5-1.5s.7-1.5 1.5-1.5h15c.8 0 1.5.7 1.5 1.5v20c0 .8-.7 1.5-1.5 1.5zm-34 2.5c-.8 0-1.5-.7-1.5-1.5V36.5c0-.8.7-1.5 1.5-1.5h14.1c.8 0 1.5.7 1.5 1.5s-.7 1.5-1.5 1.5H33.7v21c0 .8-.7 1.5-1.5 1.5z"/><path fill="#424A4E" d="M51.2 58.4h-4.9c-.8 0-1.5-.7-1.5-1.5V29.7c0-.8.7-1.5 1.5-1.5h4.9c.8 0 1.5.7 1.5 1.5v27.2c0 .8-.7 1.5-1.5 1.5zm-3.4-3h1.9V31.2h-1.9v24.2z"/><path fill="#424A4E" d="M46.3 49.2H32.2c-.8 0-1.5-.7-1.5-1.5v-4.5c0-.8.7-1.5 1.5-1.5h14.1c.8 0 1.5.7 1.5 1.5v4.5c0 .9-.7 1.5-1.5 1.5zm-12.6-3h11.1v-1.5H33.7v1.5zm32.5 3h-15c-.8 0-1.5-.7-1.5-1.5v-4.5c0-.8.7-1.5 1.5-1.5h15c.8 0 1.5.7 1.5 1.5v4.5c0 .9-.7 1.5-1.5 1.5zm-13.5-3h12v-1.5h-12v1.5zm-4.5-15c-4.7 0-8.9-3-10.2-5.8-.8-1.7-.6-3.5.5-4.8 1.1-1.3 2.7-1.6 4.5-1 3.2 1.2 6.7 5.6 6.7 10.1 0 .8-.7 1.5-1.5 1.5zm-6.9-9c-.3 0-.5.2-.6.3-.1.2-.5.6-.1 1.6.7 1.6 3.1 3.3 5.8 3.9-.7-2.5-2.8-5-4.5-5.6-.2-.1-.4-.2-.6-.2z"/><path fill="#424A4E" d="M48.7 31.2c-.8 0-1.5-.7-1.5-1.5 0-4.5 3.5-9 6.7-10.1 1.8-.7 3.4-.3 4.5 1s1.3 3.1.5 4.8c-1.3 2.8-5.4 5.8-10.2 5.8zm6.9-9c-.2 0-.4 0-.6.1-1.7.6-3.8 3.1-4.5 5.6 2.7-.6 5-2.3 5.8-3.9.5-1 .1-1.4-.1-1.6-.1 0-.2-.2-.6-.2z"/><path clip-rule="evenodd" fill="none" stroke="#434343" stroke-width="3" stroke-linecap="round" stroke-linejoin="round" stroke-miterlimit="10" d="M80.4 79.4L46 72.7s-15.8-4.2-18.8-6c-3-1.8-14-6.1-14.6-6.8-.7-.7-.6-5.6 5.4-4.9 3.6.5 8.7 2.4 10.7 3.5 6.6.7 8.1.2 11.8 2.5"/><path clip-rule="evenodd" fill="none" stroke="#434343" stroke-width="3" stroke-linecap="round" stroke-linejoin="round" stroke-miterlimit="10" d="M84 67.4l-6.4-2.9c-1-5.4-6.4-7.6-9.9-7.6H43.9c-3.2 0-6.3 5.1 0 6.5 6.3 1.4 16.2-.5 20.3 4.1"/></svg><svg width="119" height="119" viewBox="-10 -10 119 119" y="1496"><path clip-rule="evenodd" fill="none" stroke="#474B4E" stroke-width="3" stroke-linecap="round" stroke-linejoin="round" stroke-miterlimit="10" d="M49.5 1.5c26.5 0 48 21.5 48 48s-21.5 48-48 48-48-21.5-48-48 21.5-48 48-48z"/><path fill="none" stroke="#474B4E" stroke-width="3" stroke-linecap="round" stroke-linejoin="round" stroke-miterlimit="10" d="M63.2 35v24.8H45.4c0-3-2.4-5.4-5.4-5.4-3 0-5.4 2.4-5.4 5.4h-3.2c0-3-2.4-5.4-5.4-5.4s-5.4 2.4-5.4 5.4h-3.7V35c0-2 1.6-3.6 3.6-3.6h39.1c2-.1 3.6 1.6 3.6 3.6z"/><path fill="#424A4E" d="M81.1 61.2h-3.6c-.4 0-.8-.2-1.1-.4-.3-.3-.4-.7-.4-1.1 0-1.3-.6-2.5-1.7-3.3-1.3-.9-3.1-.9-4.4 0-1.1.7-1.7 1.9-1.7 3.3 0 .8-.7 1.5-1.5 1.5h-3.6c-.4 0-.8-.2-1.1-.4s-.4-.7-.4-1.1V39c0-.8.7-1.5 1.5-1.5h9c.4 0 .8.2 1.1.5l9 10.4c.2.3.4.6.4 1v10.4c0 .8-.6 1.4-1.5 1.4zm-2.2-3h.7v-8.3l-8.2-9.4h-6.8v17.7h.7c.4-1.7 1.4-3.2 2.9-4.2 2.3-1.5 5.5-1.6 7.8 0 1.5 1 2.5 2.5 2.9 4.2z"/><path fill="none" stroke="#474B4E" stroke-width="3" stroke-linecap="round" stroke-linejoin="round" stroke-miterlimit="10" d="M81.1 59.7h3l.1-4.5h-9m-7.8-17.7v17.7h1.7m-37.7 4.5c0 3-2.4 5.4-5.4 5.4s-5.4-2.4-5.4-5.4 2.4-5.4 5.4-5.4 5.4 2.4 5.4 5.4zm14 0c0 3-2.4 5.4-5.4 5.4-3 0-5.4-2.4-5.4-5.4s2.4-5.4 5.4-5.4c3 0 5.4 2.4 5.4 5.4z"/><path fill="none" stroke="#474B4E" stroke-width="3" stroke-linecap="round" stroke-linejoin="round" stroke-miterlimit="10" d="M77.6 59.7c0 3-2.4 5.4-5.4 5.4s-5.4-2.4-5.4-5.4c0-1.9 1-3.5 2.4-4.5.9-.6 1.9-.9 3-.9s2.2.3 3 .9c1.4 1 2.4 2.7 2.4 4.5z"/><path fill="#424A4E" d="M45.4 48.6H16.8c-.8 0-1.5-.7-1.5-1.5s.7-1.5 1.5-1.5h24.6l-4-3.6c-.5-.4-.6-1.1-.4-1.7.2-.6.8-1 1.4-1h24.8c.8 0 1.5.7 1.5 1.5s-.7 1.5-1.5 1.5H42.3l4.1 3.7c.5.4.6 1.1.4 1.7-.2.5-.8.9-1.4.9z"/><path fill="none" stroke="#474B4E" stroke-width="3" stroke-linecap="round" stroke-linejoin="round" stroke-miterlimit="10" d="M46.7 21h24.4"/><path fill="#424A4E" d="M55.9 14.9H41.3c-.8 0-1.5-.7-1.5-1.5s.7-1.5 1.5-1.5H56c.8 0 1.5.7 1.5 1.5s-.7 1.5-1.6 1.5zm3 62H30.4c-.8 0-1.5-.7-1.5-1.5s.7-1.5 1.5-1.5h28.5c.8 0 1.5.7 1.5 1.5s-.6 1.5-1.5 1.5z"/><path fill="none" stroke="#474B4E" stroke-width="3" stroke-linecap="round" stroke-linejoin="round" stroke-miterlimit="10" d="M48.6 81.7h18.2"/></svg></svg>